# AST/ASF file generated using VICON BodyLanguage
# -----------------------------------------------
:version 1.10
:name VICON
:units
  mass 1.0
  length 0.45
  angle deg
:documentation
   .ast/.asf automatically generated from VICON data using
   VICON BodyBuilder and BodyLanguage model FoxedUp or BRILLIANT.MOD
:root
   order TX TY TZ RX RY RZ
   axis XYZ
   position 0 0 0  
   orientation 0 0 0 
:bonedata
  begin
     id 1 
     name lhipjoint
     direction 0.62366 -0.717238 0.310833 
     length 2.53602 
     axis 0 0 0  XYZ
  end
  begin
     id 2 
     name lfemur
     direction 0.34202 -0.939693 0  
     length 7.40817  
     axis 0 0 20  XYZ
    dof rx ry rz
    limits (-160.0 20.0)
           (-70.0 70.0)
           (-60.0 70.0)
  end
  begin
     id 3 
     name ltibia
     direction 0.34202 -0.939693 0   
     length 7.7045   
     axis 0 0 20   XYZ
    dof rx
    limits (-10.0 170.0)
  end
  begin
     id 4 
     name lfoot
     direction 0.0673888 -0.185149 0.980397   
     length 2.09456   
     axis -90 7.62852e-016 20   XYZ
    dof rx rz
    limits (-45.0 90.0)
           (-70.0 20.0)
  end
  begin
     id 5 
     name ltoes
     direction 1.53575e-011 -4.21994e-011 1   
     length 1.05543   
     axis -90 7.62852e-016 20   XYZ
    dof rx
    limits (-90.0 20.0)
  end
  begin
     id 6 
     name rhipjoint
     direction -0.489018 -0.800347 0.346851   
     length 2.27268  
     axis 0 0 0  XYZ 
  end
  begin
     id 7 
     name rfemur
     direction -0.34202 -0.939693 0   
     length 7.55487   
     axis 0 0 -20   XYZ
    dof rx ry rz
    limits (-160.0 20.0)
           (-70.0 70.0)
           (-70.0 60.0)
  end
  begin
     id 8 
     name rtibia
     direction -0.34202 -0.939693 0   
     length 7.78969   
     axis 0 0 -20   XYZ
    dof rx
    limits (-10.0 170.0)
 end
 begin
     id 9 
     name rfoot
     direction -0.0859318 -0.236096 0.967923   
     length 2.19143  
     axis -90 -7.62852e-016 -20   XYZ
    dof rx rz
    limits (-45.0 90.0)
           (-20.0 70.0)
  end
  begin
     id 10 
     name rtoes
     direction -1.53538e-011 -4.21989e-011 1   
     length 1.09845   
     axis -90 -7.62852e-016 -20   XYZ
    dof rx
    limits (-90.0 20.0)
  end
  begin
     id 11 
     name lowerback
     direction -0.00762546 0.998978 -0.0445553   
     length 1.98161   
     axis 0 0 0   XYZ
    dof rx ry rz
    limits (-20.0 45.0)
           (-30.0 30.0)
           (-30.0 30.0)
  end
  begin
     id 12 
     name upperback
     direction 0.0422361 0.998867 -0.0219156   
     length 1.97558   
     axis 0 0 0   XYZ
    dof rx ry rz
    limits (-20.0 45.0)
           (-30.0 30.0)
           (-30.0 30.0)
  end
  begin
     id 13 
     name thorax
     direction 0.0442465 0.999021 7.47603e-005   
     length 1.97799   
     axis 0 0 0   XYZ
    dof rx ry rz
    limits (-20.0 45.0)
           (-30.0 30.0)
           (-30.0 30.0)
  end
  begin
     id 14 
     name lowerneck
     direction 0.00312169 0.984641 0.174564   
     length 1.78995   
     axis 0 0 0   XYZ
    dof rx ry rz
    limits (-20.0 45.0)
           (-30.0 30.0)
           (-30.0 30.0)
  end
  begin
     id 15 
     name upperneck
     direction -0.0383028 0.985255 -0.166749   
     length 1.83053   
     axis 0 0 0   XYZ
    dof rx ry rz
    limits (-20.0 45.0)
           (-30.0 30.0)
           (-30.0 30.0)
  end
  begin
     id 16
     name head
     direction -0.0129546 0.997059 -0.0755386  
     length 1.84088  
     axis 0 0 0   XYZ
    dof rx ry rz
    limits (-20.0 45.0)
           (-30.0 30.0)
           (-30.0 30.0)
  end
  begin
     id 17 
     name lclavicle
     direction 0.912857 0.370519 -0.171488  
     length 3.51279  
     axis 0 0 0   XYZ
    dof ry rz
    limits (-20.0 10.0)
           (0.0 20.0)
  end
  begin
     id 18 
     name lhumerus
     direction 1 -4.48962e-011 3.64361e-027   
     length 4.95663   
     axis 180 -30 -90   XYZ
    dof rx ry rz
    limits (-60.0 90.0)
           (-90.0 90.0)
           (-90.0 90.0)
  end
  begin
     id 19
     name lradius
     direction 1 -4.48974e-011 5.97202e-027   
     length 3.38177   
     axis 180 -30 -90   XYZ
    dof rx
    limits (-10.0 170.0)
  end
  begin
     id 20
     name lwrist
     direction 1 -4.4896e-011 9.83288e-027   
     length 1.69088   
     axis -9.31221e-015 90 90   XYZ
    dof ry
    limits (-180.0 0.0)
 end
  begin
     id 21 
     name lhand
     direction 1 -4.4902e-011 1.96551e-026   
     length 0.662909   
     axis -1.25475e-014 90 90   XYZ
    dof rx rz
    limits (-90.0 90.0)
           (-45.0 45.0)
  end
  begin
     id 22 
     name lfingers
     direction 1 -4.48971e-011 3.93277e-026   
     length 0.534454   
     axis -2.50945e-014 90 90   XYZ
    dof rx
    limits (0.0 90.0)
  end
  begin
     id 23
     name lthumb
     direction 0.707107 -6.34933e-011 0.707107   
     length 0.767373   
     axis -90 45 -4.80359e-014   XYZ
    dof rx rz
    limits (-45.0 45.0)
           (-45.0 45.0)
  end
  begin
     id 24 
     name rclavicle
     direction -0.900919 0.395364 -0.178976   
     length 3.40627  
     axis 0 0 0   XYZ 
    dof ry rz
    limits (-10.0 20.0)
           (-20.0 0.0)
  end
  begin
     id 25 
     name rhumerus
     direction -1 -4.48969e-011 1.03875e-027  
     length 5.08365   
     axis 180 30 90   XYZ
    dof rx ry rz
    limits (-90.0 60.0)
           (-90.0 90.0)
           (-90.0 90.0)
  end
  begin
     id 26 
     name rradius
     direction -1 -4.48951e-011 5.02733e-027   
     length 3.35984   
     axis 180 30 90   XYZ
    dof rx
    limits (-10.0 170.0)
  end
  begin
     id 27 
     name rwrist
     direction -1 -4.49011e-011 9.82828e-027   
     length 1.67992   
     axis -9.31221e-015 -90 -90   XYZ
    dof ry
    limits (-180.0 0.0)
  end
  begin
     id 28
     name rhand
     direction -1 -4.48894e-011 1.96774e-026   
     length 0.820764   
     axis -1.25475e-014 -90 -90   XYZ
    dof rx rz
    limits (-90.0 90.0)
           (-45.0 45.0)
  end
  begin
     id 29
     name rfingers
     direction -1 -4.49095e-011 3.92833e-026   
     length 0.661721   
     axis -2.50945e-014 -90 -90   XYZ
    dof rx
    limits (0.0 90.0)
  end
  begin
     id 30
     name rthumb
     direction -0.707107 -6.34881e-011 0.707107   
     length 0.950103   
     axis -90 -45 4.80359e-014   XYZ
    dof rx rz
    limits (-45.0 45.0)
           (-45.0 45.0)
  end
:hierarchy
  begin
    root lhipjoint rhipjoint lowerback
    lhipjoint lfemur
    lfemur ltibia
    ltibia lfoot
    lfoot ltoes
    rhipjoint rfemur
    rfemur rtibia
    rtibia rfoot
    rfoot rtoes
    lowerback upperback
    upperback thorax
    thorax lowerneck lclavicle rclavicle
    lowerneck upperneck
    upperneck head
    lclavicle lhumerus
    lhumerus lradius
    lradius lwrist
    lwrist lhand lthumb
    lhand lfingers
    rclavicle rhumerus
    rhumerus rradius
    rradius rwrist
    rwrist rhand rthumb
    rhand rfingers
  end

#!OML:ASF I:\golf\golf\golf 2\Subject 1\2002-09-07\Subject1.ASF
:FULLY-SPECIFIED
:DEGREES
37
root -0.158042 18.167 -9.48582 8.06686 -1.50922 -7.57745
lowerback -4.94691 0.807195 -0.813264
upperback 0.00938599 0.997218 4.54558
thorax 2.69187 0.458914 5.24434
lowerneck -15.2253 1.56389 1.48247
upperneck 41.4342 4.43404 -5.62869
head 18.2943 1.2448 -2.05859
rclavicle 1.15544e-014 2.64384e-014
rhumerus -28.4507 1.26035 -87.7749
rradius 25.6147
rwrist -7.12276
rhand -17.5541 10.4605
rfingers 7.12502
rthumb 8.70065 -19.3402
lclavicle 1.15544e-014 2.64384e-014
lhumerus -25.8467 -1.92683 90.0192
lradius 24.1284
lwrist 3.76883
lhand -8.28638 34.7234
lfingers 7.12502
lthumb 17.6333 63.9438
rfemur -17.0309 -0.50473 28.2383
rtibia 23.2277
rfoot -9.74727 -8.50097
rtoes 16.1393
lfemur -13.8263 3.8154 -12.9006
ltibia 26.4734
lfoot -15.8319 4.00281
ltoes -6.10287
38
root -0.150386 18.1668 -9.48151 8.03382 -1.49472 -7.63786
lowerback -5.05941 0.793744 -0.889382
upperback 0.0945867 0.977061 4.61264
thorax 2.84296 0.44357 5.36174
lowerneck -15.1688 1.55631 1.47577
upperneck 41.3173 4.46649 -5.74603
head 18.2161 1.24259 -2.10213
rclavicle -5.51627e-015 6.20208e-014
rhumerus -28.4202 1.34226 -87.7718
rradius 25.6712
rwrist -7.00153
rhand -17.8762 10.816
rfingers 7.12502
rthumb 8.38985 -18.9974
lclavicle -5.51627e-015 6.20208e-014
lhumerus -25.6473 -1.46703 89.9219
lradius 23.7185
lwrist 3.28425
lhand -8.17093 34.9319
lfingers 7.12502
lthumb 17.7444 64.1423
rfemur -16.9712 -0.629645 28.2923
rtibia 23.1999
rfoot -9.84789 -8.4073
rtoes 17.1166
lfemur -13.7869 3.98206 -12.8537
ltibia 26.4792
lfoot -15.8567 3.7925
ltoes -5.51895
39
root -0.144518 18.1677 -9.48059 8.04103 -1.51657 -7.67265
lowerback -5.06422 0.79584 -0.939592
upperback 0.129415 0.980886 4.63817
thorax 2.88013 0.443432 5.41855
lowerneck -15.2344 1.52892 1.35224
upperneck 41.2872 4.45024 -5.70953
head 18.21 1.22019 -2.06421
rclavicle -4.4975e-015 -8.94531e-015
rhumerus -28.4208 1.48003 -87.8062
rradius 25.7338
rwrist -6.9376
rhand -17.7771 10.5101
rfingers 7.12502
rthumb 8.48543 -19.2994
lclavicle -4.4975e-015 -8.94531e-015
lhumerus -25.5372 -1.21062 89.8148
lradius 23.4124
lwrist 3.00822
lhand -8.07957 34.7688
lfingers 7.12502
lthumb 17.8323 63.9712
rfemur -16.9676 -0.598514 28.3147
rtibia 23.1807
rfoot -9.83422 -8.45483
rtoes 17.1641
lfemur -13.7836 4.04718 -12.8391
ltibia 26.4725
lfoot -15.8902 3.78034
ltoes -5.7782
40
root -0.137089 18.1691 -9.48068 8.10876 -1.51735 -7.60533
lowerback -5.03768 0.796392 -0.99851
upperback 0.0842394 0.988847 4.57806
thorax 2.8176 0.448768 5.38774
lowerneck -15.2937 1.52347 1.27943
upperneck 41.3469 4.42364 -5.5949
head 18.2529 1.21183 -2.00404
rclavicle 7.8023e-015 1.98785e-016
rhumerus -28.4682 1.56021 -87.9015
rradius 25.7432
rwrist -6.93105
rhand -17.6073 10.2722
rfingers 7.12502
rthumb 8.64934 -19.5307
lclavicle 7.8023e-015 1.98785e-016
lhumerus -25.577 -1.24092 89.7085
lradius 23.229
lwrist 2.99719
lhand -8.17295 34.7267
lfingers 7.12502
lthumb 17.7424 63.9373
rfemur -17.03 -0.475779 28.2038
rtibia 23.1598
rfoot -9.80873 -8.56514
rtoes 17.1267
lfemur -13.8495 3.98118 -12.951
ltibia 26.4681
lfoot -15.8785 3.86659
ltoes -5.9316
41
root -0.125015 18.1693 -9.48132 8.17072 -1.52242 -7.59643
lowerback -5.04892 0.804453 -0.941871
upperback 0.0643423 0.998318 4.52239
thorax 2.8042 0.455192 5.29712
lowerneck -15.3003 1.55577 1.3416
upperneck 41.345 4.45371 -5.59718
head 18.2573 1.23335 -2.01056
rclavicle -2.29348e-014 -3.57812e-014
rhumerus -28.4785 1.61178 -87.9858
rradius 25.7782
rwrist -6.956
rhand -17.7511 10.3165
rfingers 7.12502
rthumb 8.51052 -19.492
lclavicle -2.29348e-014 -3.57812e-014
lhumerus -25.5578 -1.09566 89.555
lradius 22.96
lwrist 2.78269
lhand -8.24189 34.9617
lfingers 7.12502
lthumb 17.6761 64.1783
rfemur -17.0983 -0.477604 28.1474
rtibia 23.1363
rfoot -9.80907 -8.51275
rtoes 16.8604
lfemur -13.9075 3.9184 -13.0143
ltibia 26.4582
lfoot -15.8908 3.92944
ltoes -5.63784
42
root -0.11312 18.1686 -9.48094 8.13475 -1.55499 -7.64598
lowerback -5.10565 0.831455 -0.861275
upperback 0.153872 1.02616 4.50594
thorax 2.92771 0.467 5.23895
lowerneck -15.3531 1.55506 1.41142
upperneck 41.3309 4.46504 -5.68384
head 18.27 1.23642 -2.06181
rclavicle -6.78353e-015 9.93923e-016
rhumerus -28.4245 1.64583 -88.0289
rradius 25.8901
rwrist -7.00225
rhand -18.0445 10.1266
rfingers 7.12502
rthumb 8.22743 -19.6932
lclavicle -6.78353e-015 9.93923e-016
lhumerus -25.4423 -0.786477 89.4051
lradius 22.685
lwrist 2.39179
lhand -8.235 34.9439
lfingers 7.12502
lthumb 17.6827 64.1598
rfemur -17.0489 -0.548884 28.1705
rtibia 23.1141
rfoot -9.79601 -8.41967
rtoes 16.1313
lfemur -13.8562 3.86183 -13.0052
ltibia 26.4579
lfoot -15.9108 4.04521
ltoes -5.89269
43
root -0.10339 18.1694 -9.48107 8.13811 -1.54235 -7.66681
lowerback -5.14562 0.832732 -0.863916
upperback 0.197282 1.02565 4.51574
thorax 2.995 0.464875 5.2527
lowerneck -15.4164 1.52001 1.37411
upperneck 41.3745 4.43609 -5.70463
head 18.3119 1.21445 -2.07245
rclavicle 2.76062e-014 -8.34896e-015
rhumerus -28.3728 1.64332 -88.0126
rradius 25.9166
rwrist -6.98905
rhand -18.2719 10.0825
rfingers 7.12502
rthumb 8.00792 -19.7458
lclavicle 2.76062e-014 -8.34896e-015
lhumerus -25.4185 -0.501614 89.3251
lradius 22.5208
lwrist 2.08441
lhand -8.1858 34.9617
lfingers 7.12502
lthumb 17.7301 64.1734
rfemur -17.0387 -0.573184 28.1664
rtibia 23.089
rfoot -9.7426 -8.41712
rtoes 15.6417
lfemur -13.8796 3.77034 -13.0163
ltibia 26.4747
lfoot -15.9013 4.13734
ltoes -6.28033
44
root -0.0939776 18.1708 -9.48309 8.21286 -1.51514 -7.72
lowerback -5.11755 0.827573 -0.840893
upperback 0.124427 1.01964 4.53752
thorax 2.90437 0.464632 5.25985
lowerneck -15.3579 1.51489 1.36873
upperneck 41.4202 4.43682 -5.7133
head 18.3239 1.21331 -2.07735
rclavicle -1.26974e-014 -4.31363e-014
rhumerus -28.3806 1.59099 -87.9579
rradius 25.8004
rwrist -6.87734
rhand -18.3723 10.3289
rfingers 7.12502
rthumb 7.91101 -19.5031
lclavicle -1.26974e-014 -4.31363e-014
lhumerus -25.535 -0.400162 89.293
lradius 22.4067
lwrist 1.96061
lhand -8.12827 35.214
lfingers 7.12502
lthumb 17.7854 64.4207
rfemur -17.1249 -0.527159 28.1771
rtibia 23.0767
rfoot -9.73688 -8.39705
rtoes 16.4231
lfemur -13.9929 3.76541 -12.9929
ltibia 26.4888
lfoot -15.8807 4.10068
ltoes -6.2206
45
root -0.0865502 18.1719 -9.48102 8.2726 -1.54053 -7.71175
lowerback -5.23296 0.81759 -0.972399
upperback 0.111177 1.01153 4.58752
thorax 2.9533 0.457624 5.39
lowerneck -15.2317 1.52707 1.37048
upperneck 41.3911 4.48391 -5.78644
head 18.2787 1.22497 -2.1021
rclavicle -4.42296e-015 -1.88845e-014
rhumerus -28.3457 1.61751 -87.8617
rradius 25.7048
rwrist -6.8202
rhand -18.4277 10.5107
rfingers 7.12502
rthumb 7.85755 -19.3233
lclavicle -4.42296e-015 -1.88845e-014
lhumerus -25.6139 -0.302175 89.3145
lradius 22.2948
lwrist 1.88431
lhand -8.22795 35.2918
lfingers 7.12502
lthumb 17.6895 64.5072
rfemur -17.1852 -0.490785 28.1242
rtibia 23.0831
rfoot -9.80043 -8.32448
rtoes 17.1333
lfemur -14.0443 3.8362 -13.0405
ltibia 26.4728
lfoot -15.8454 4.05327
ltoes -5.92866
46
root -0.0726752 18.1717 -9.48203 8.25753 -1.75897 -7.6501
lowerback -5.21365 0.834722 -1.12456
upperback 0.153834 1.04072 4.65291
thorax 2.98 0.468322 5.54882
lowerneck -15.2083 1.58065 1.26982
upperneck 41.3332 4.61815 -5.83087
head 18.2466 1.25729 -2.07643
rclavicle -3.08365e-014 -9.34288e-015
rhumerus -28.2783 1.87075 -87.7565
rradius 25.7184
rwrist -6.91664
rhand -18.4 10.4847
rfingers 7.12502
rthumb 7.88428 -19.3483
lclavicle -3.08365e-014 -9.34288e-015
lhumerus -25.6038 0.05039 89.3431
lradius 22.0977
lwrist 1.76229
lhand -8.45315 35.2365
lfingers 7.12502
lthumb 17.4728 64.4713
rfemur -17.1907 -0.503886 27.9866
rtibia 23.0872
rfoot -9.79565 -8.08228
rtoes 17.1679
lfemur -13.9847 3.79323 -13.1928
ltibia 26.4663
lfoot -15.8114 4.27964
ltoes -5.54225
47
root -0.0643589 18.1715 -9.47568 8.16313 -1.58375 -7.6226
lowerback -5.08868 0.724433 -1.20879
upperback 0.161409 0.897726 4.71824
thorax 2.93031 0.395783 5.65275
lowerneck -15.2327 1.64922 1.18371
upperneck 41.339 4.75442 -5.82467
head 18.2639 1.29809 -2.03162
rclavicle -4.19933e-015 -3.29983e-014
rhumerus -28.3008 2.07956 -87.7009
rradius 25.7443
rwrist -6.99752
rhand -18.3574 10.3888
rfingers 7.12502
rthumb 7.92539 -19.4426
lclavicle -4.19933e-015 -3.29983e-014
lhumerus -25.6227 0.422806 89.294
lradius 21.8318
lwrist 1.58352
lhand -8.44714 35.1019
lfingers 7.12502
lthumb 17.4786 64.3361
rfemur -17.0635 -0.630498 27.9479
rtibia 23.0796
rfoot -9.84799 -8.13696
rtoes 17.1469
lfemur -13.8853 3.66539 -13.2158
ltibia 26.464
lfoot -15.8545 4.20823
ltoes -5.54712
48
root -0.0576121 18.1704 -9.46992 8.17616 -1.50747 -7.69234
lowerback -5.09203 0.69043 -1.14124
upperback 0.176878 0.84694 4.73739
thorax 2.95435 0.370512 5.63099
lowerneck -15.3321 1.65187 1.18397
upperneck 41.3571 4.78002 -5.86887
head 18.3063 1.29991 -2.04858
rclavicle 9.81499e-015 -1.82882e-014
rhumerus -28.2049 2.08684 -87.682
rradius 25.6404
rwrist -7.00261
rhand -18.4303 10.3437
rfingers 7.12502
rthumb 7.85505 -19.4904
lclavicle 9.81499e-015 -1.82882e-014
lhumerus -25.6162 0.679711 89.1771
lradius 21.6478
lwrist 1.29843
lhand -8.23936 34.749
lfingers 7.12502
lthumb 17.6785 63.9653
rfemur -17.0433 -0.7217 28.03
rtibia 23.069
rfoot -9.85982 -8.19246
rtoes 16.2836
lfemur -13.8873 3.67543 -13.154
ltibia 26.4649
lfoot -15.9069 4.15639
ltoes -5.53272
49
root -0.0516467 18.1699 -9.46445 8.20334 -1.52595 -7.73453
lowerback -5.10307 0.705807 -1.07878
upperback 0.20585 0.863565 4.70383
thorax 2.99016 0.378924 5.56171
lowerneck -15.4988 1.63577 1.24051
upperneck 41.3997 4.74884 -5.89079
head 18.3785 1.28963 -2.07734
rclavicle 1.81143e-014 -2.68359e-014
rhumerus -28.0248 1.97759 -87.6762
rradius 25.4529
rwrist -6.95497
rhand -18.5367 10.3784
rfingers 7.12502
rthumb 7.7523 -19.4595
lclavicle 1.81143e-014 -2.68359e-014
lhumerus -25.6267 0.747502 89.0611
lradius 21.5869
lwrist 1.11367
lhand -8.17393 34.6369
lfingers 7.12502
lthumb 17.7415 63.8476
rfemur -17.0272 -0.748362 28.0717
rtibia 23.0428
rfoot -9.86284 -8.21071
rtoes 15.5474
lfemur -13.8974 3.75388 -13.1385
ltibia 26.4739
lfoot -15.9371 4.12393
ltoes -5.25508
50
root -0.0456016 18.1698 -9.46043 8.14696 -1.5605 -7.69845
lowerback -4.98507 0.726665 -1.07072
upperback 0.195602 0.895288 4.62873
thorax 2.91099 0.397111 5.47688
lowerneck -15.5409 1.65232 1.32351
upperneck 41.4742 4.73006 -5.84219
head 18.4336 1.30046 -2.07611
rclavicle 9.69075e-015 5.24792e-014
rhumerus -28.0228 1.82888 -87.6818
rradius 25.3832
rwrist -6.88891
rhand -18.5564 10.3482
rfingers 7.12502
rthumb 7.73331 -19.4904
lclavicle 9.69075e-015 5.24792e-014
lhumerus -25.7775 0.649524 88.986
lradius 21.599
lwrist 1.13039
lhand -8.16572 34.9143
lfingers 7.12502
lthumb 17.7494 64.1242
rfemur -16.9373 -0.776887 28.0093
rtibia 23.0298
rfoot -9.84435 -8.15705
rtoes 15.317
lfemur -13.8192 3.77675 -13.2014
ltibia 26.4899
lfoot -15.9542 4.10627
ltoes -5.16628
51
root -0.0381325 18.1684 -9.45922 8.09321 -1.5839 -7.6772
lowerback -4.9009 0.761633 -1.02634
upperback 0.179307 0.943351 4.55577
thorax 2.8436 0.423834 5.37541
lowerneck -15.4496 1.65098 1.40767
upperneck 41.4867 4.69144 -5.82636
head 18.4146 1.30246 -2.09196
rclavicle -7.03201e-015 2.08724e-014
rhumerus -28.095 1.65197 -87.6768
rradius 25.437
rwrist -6.82227
rhand -18.5286 10.1175
rfingers 7.12502
rthumb 7.76013 -19.7201
lclavicle -7.03201e-015 2.08724e-014
lhumerus -25.9557 0.445532 88.9774
lradius 21.6132
lwrist 1.26268
lhand -8.20311 35.1074
lfingers 7.12502
lthumb 17.7134 64.3206
rfemur -16.8939 -0.831803 27.9649
rtibia 23.0547
rfoot -9.79515 -8.13113
rtoes 14.9675
lfemur -13.7441 3.75132 -13.2517
ltibia 26.4797
lfoot -15.9656 4.12771
ltoes -5.36137
